<svg width="220" height="32" viewBox="0 0 220 32" fill="none" xmlns="http://www.w3.org/2000/svg">
<path d="M11.2047 6.0469C10.9952 5.57495 10.814 4.84759 11.7595 4.40895C12.5862 4.02028 13.7526 3.89258 14.9756 3.89258C16.527 3.90924 18.1124 4.27569 19.6411 4.96419C21.1699 5.65268 22.6137 6.65211 23.8877 7.90139C25.1616 9.15067 26.2431 10.6332 27.0697 12.26C27.8964 13.8868 28.4513 15.6247 28.7004 17.3737C28.9495 19.1227 28.8929 20.8551 28.5306 22.4653C28.1682 24.0754 27.4717 25.4635 26.5885 26.7628C26.1015 27.4124 25.541 27.9954 24.9238 28.4896C24.0179 29.2169 22.8911 29.0837 22.3136 27.9232L16.8837 17.2294L11.2047 6.0469Z" fill="url(#paint0_linear_4101_13617)"/>
<path d="M17.7669 23.254C18.0387 23.7926 18.0896 24.2146 17.2233 24.6365C16.2212 25.1196 15.0435 25.1807 13.8771 25.1696C12.3257 25.1529 10.7403 24.7864 9.21154 24.098C7.68278 23.4095 6.23896 22.41 4.96499 21.1607C3.69103 19.9115 2.60958 18.429 1.78292 16.8021C0.956259 15.1753 0.401377 13.4374 0.152246 11.6884C-0.0968841 9.9394 -0.0402635 8.20706 0.322108 6.59688C0.68448 4.98669 1.34128 3.52642 2.26419 2.29934C2.80209 1.58309 3.41925 0.955667 4.11002 0.428192C4.93102 -0.199226 5.88225 -0.221436 6.43147 0.933458L11.9633 11.8328L17.7612 23.2595L17.7669 23.254Z" fill="url(#paint1_linear_4101_13617)"/>
<g clip-path="url(#clip0_4101_13617)">
<g clip-path="url(#paint2_diamond_4101_13617_clip_path)" data-figma-skip-parse="true"><g transform="matrix(0.012546 0 0 0.0114572 53.4045 12.5275)"><rect x="0" y="0" width="1079.71" height="1087.28" fill="url(#paint2_diamond_4101_13617)" opacity="1" shape-rendering="crispEdges"/><rect x="0" y="0" width="1079.71" height="1087.28" transform="scale(1 -1)" fill="url(#paint2_diamond_4101_13617)" opacity="1" shape-rendering="crispEdges"/><rect x="0" y="0" width="1079.71" height="1087.28" transform="scale(-1 1)" fill="url(#paint2_diamond_4101_13617)" opacity="1" shape-rendering="crispEdges"/><rect x="0" y="0" width="1079.71" height="1087.28" transform="scale(-1)" fill="url(#paint2_diamond_4101_13617)" opacity="1" shape-rendering="crispEdges"/></g></g><path d="M45.8674 1.07031C46.4439 1.07031 46.9732 1.4151 47.1906 1.94626L53.2769 16.6137H53.5321L59.6185 1.94626C59.8358 1.4151 60.3556 1.07031 60.9416 1.07031H64.5235C65.3079 1.07031 65.9506 1.70398 65.9506 2.47742V23.1553C65.9506 23.612 65.5725 23.9847 65.1094 23.9847H62.1135C61.6504 23.9847 61.2724 23.612 61.2724 23.1553V8.98179H61.0834L55.2333 23.3697C55.1009 23.6865 54.7985 23.8915 54.4488 23.8915H52.3791C52.0294 23.8915 51.727 23.6865 51.5947 23.3697L45.7446 8.92587H45.5555V23.1553C45.5555 23.612 45.1775 23.9847 44.7144 23.9847H41.6996C41.2365 23.9847 40.8585 23.612 40.8585 23.1553V2.47742C40.8585 1.70398 41.5011 1.07031 42.2855 1.07031H45.8674Z" data-figma-gradient-fill="{&#34;type&#34;:&#34;GRADIENT_DIAMOND&#34;,&#34;stops&#34;:[{&#34;color&#34;:{&#34;r&#34;:0.30588236451148987,&#34;g&#34;:0.16941176354885101,&#34;b&#34;:0.094117648899555206,&#34;a&#34;:1.0},&#34;position&#34;:0.0},{&#34;color&#34;:{&#34;r&#34;:0.23137255012989044,&#34;g&#34;:0.12941177189350128,&#34;b&#34;:0.070588238537311554,&#34;a&#34;:1.0},&#34;position&#34;:1.0}],&#34;stopsVar&#34;:[{&#34;color&#34;:{&#34;r&#34;:0.30588236451148987,&#34;g&#34;:0.16941176354885101,&#34;b&#34;:0.094117648899555206,&#34;a&#34;:1.0},&#34;position&#34;:0.0},{&#34;color&#34;:{&#34;r&#34;:0.23137255012989044,&#34;g&#34;:0.12941177189350128,&#34;b&#34;:0.070588238537311554,&#34;a&#34;:1.0},&#34;position&#34;:1.0}],&#34;transform&#34;:{&#34;m00&#34;:25.092098236083984,&#34;m01&#34;:0.0,&#34;m02&#34;:40.858459472656250,&#34;m10&#34;:0.0,&#34;m11&#34;:22.914384841918945,&#34;m12&#34;:1.07031250},&#34;opacity&#34;:1.0,&#34;blendMode&#34;:&#34;NORMAL&#34;,&#34;visible&#34;:true}"/>
<g clip-path="url(#paint3_diamond_4101_13617_clip_path)" data-figma-skip-parse="true"><g transform="matrix(0.00822865 0 0 0.0118253 75.5969 20.1827)"><rect x="0" y="0" width="1121.53" height="1084.56" fill="url(#paint3_diamond_4101_13617)" opacity="1" shape-rendering="crispEdges"/><rect x="0" y="0" width="1121.53" height="1084.56" transform="scale(1 -1)" fill="url(#paint3_diamond_4101_13617)" opacity="1" shape-rendering="crispEdges"/><rect x="0" y="0" width="1121.53" height="1084.56" transform="scale(-1 1)" fill="url(#paint3_diamond_4101_13617)" opacity="1" shape-rendering="crispEdges"/><rect x="0" y="0" width="1121.53" height="1084.56" transform="scale(-1)" fill="url(#paint3_diamond_4101_13617)" opacity="1" shape-rendering="crispEdges"/></g></g><path d="M68.5874 31.9055V28.2619C69.2017 28.2899 69.9011 28.3271 70.5154 28.3271C71.4415 28.3271 72.2165 28.2339 72.793 26.743L73.086 26.0161L67.4438 10.1093C67.1414 9.25201 67.7841 8.35742 68.7008 8.35742H70.7894C71.3848 8.35742 71.9141 8.7488 72.0748 9.31724L75.4582 21.0214H75.6472L79.059 9.31724C79.2196 8.7488 79.7489 8.36674 80.3443 8.36674H82.4896C83.4064 8.36674 84.0585 9.26132 83.7466 10.1186L77.5657 27.4512C76.5734 30.2095 74.6737 32.008 70.9879 32.008C70.0617 32.008 69.1922 31.98 68.5779 31.9148L68.5874 31.9055Z" data-figma-gradient-fill="{&#34;type&#34;:&#34;GRADIENT_DIAMOND&#34;,&#34;stops&#34;:[{&#34;color&#34;:{&#34;r&#34;:0.30588236451148987,&#34;g&#34;:0.16941176354885101,&#34;b&#34;:0.094117648899555206,&#34;a&#34;:1.0},&#34;position&#34;:0.0},{&#34;color&#34;:{&#34;r&#34;:0.23137255012989044,&#34;g&#34;:0.12941177189350128,&#34;b&#34;:0.070588238537311554,&#34;a&#34;:1.0},&#34;position&#34;:1.0}],&#34;stopsVar&#34;:[{&#34;color&#34;:{&#34;r&#34;:0.30588236451148987,&#34;g&#34;:0.16941176354885101,&#34;b&#34;:0.094117648899555206,&#34;a&#34;:1.0},&#34;position&#34;:0.0},{&#34;color&#34;:{&#34;r&#34;:0.23137255012989044,&#34;g&#34;:0.12941177189350128,&#34;b&#34;:0.070588238537311554,&#34;a&#34;:1.0},&#34;position&#34;:1.0}],&#34;transform&#34;:{&#34;m00&#34;:16.457309722900391,&#34;m01&#34;:0.0,&#34;m02&#34;:67.368225097656250,&#34;m10&#34;:0.0,&#34;m11&#34;:23.650550842285156,&#34;m12&#34;:8.3574218750},&#34;opacity&#34;:1.0,&#34;blendMode&#34;:&#34;NORMAL&#34;,&#34;visible&#34;:true}"/>
<g clip-path="url(#paint4_diamond_4101_13617_clip_path)" data-figma-skip-parse="true"><g transform="matrix(0.0102034 0 0 0.011774 98.4108 12.5377)"><rect x="0" y="0" width="1098.01" height="1084.93" fill="url(#paint4_diamond_4101_13617)" opacity="1" shape-rendering="crispEdges"/><rect x="0" y="0" width="1098.01" height="1084.93" transform="scale(1 -1)" fill="url(#paint4_diamond_4101_13617)" opacity="1" shape-rendering="crispEdges"/><rect x="0" y="0" width="1098.01" height="1084.93" transform="scale(-1 1)" fill="url(#paint4_diamond_4101_13617)" opacity="1" shape-rendering="crispEdges"/><rect x="0" y="0" width="1098.01" height="1084.93" transform="scale(-1)" fill="url(#paint4_diamond_4101_13617)" opacity="1" shape-rendering="crispEdges"/></g></g><path d="M99.1232 4.96635C95.494 4.96635 93.1219 7.72465 93.1219 12.533C93.1219 17.3414 95.5318 20.0997 99.0948 20.0997C101.363 20.0997 103.121 19.0467 103.886 17.2016C104.151 16.568 104.813 16.1766 105.512 16.1859H106.769C108.045 16.2046 108.905 17.4905 108.404 18.6367C107.024 21.8143 103.773 24.3117 99.0287 24.3117C92.8005 24.3117 88.2074 20.0065 88.2074 12.533C88.2074 5.05954 92.895 0.763672 99.0287 0.763672C103.508 0.763672 107.071 2.88831 108.498 6.65301C108.933 7.80852 108.092 9.05721 106.835 9.05721H105.559C104.841 9.05721 104.17 8.64719 103.924 7.98557C103.206 6.0939 101.42 4.97567 99.1326 4.97567L99.1232 4.96635Z" data-figma-gradient-fill="{&#34;type&#34;:&#34;GRADIENT_DIAMOND&#34;,&#34;stops&#34;:[{&#34;color&#34;:{&#34;r&#34;:0.30588236451148987,&#34;g&#34;:0.16941176354885101,&#34;b&#34;:0.094117648899555206,&#34;a&#34;:1.0},&#34;position&#34;:0.0},{&#34;color&#34;:{&#34;r&#34;:0.23137255012989044,&#34;g&#34;:0.12941177189350128,&#34;b&#34;:0.070588238537311554,&#34;a&#34;:1.0},&#34;position&#34;:1.0}],&#34;stopsVar&#34;:[{&#34;color&#34;:{&#34;r&#34;:0.30588236451148987,&#34;g&#34;:0.16941176354885101,&#34;b&#34;:0.094117648899555206,&#34;a&#34;:1.0},&#34;position&#34;:0.0},{&#34;color&#34;:{&#34;r&#34;:0.23137255012989044,&#34;g&#34;:0.12941177189350128,&#34;b&#34;:0.070588238537311554,&#34;a&#34;:1.0},&#34;position&#34;:1.0}],&#34;transform&#34;:{&#34;m00&#34;:20.406820297241211,&#34;m01&#34;:0.0,&#34;m02&#34;:88.20739746093750,&#34;m10&#34;:0.0,&#34;m11&#34;:23.548048019409180,&#34;m12&#34;:0.7636718750},&#34;opacity&#34;:1.0,&#34;blendMode&#34;:&#34;NORMAL&#34;,&#34;visible&#34;:true}"/>
<g clip-path="url(#paint5_diamond_4101_13617_clip_path)" data-figma-skip-parse="true"><g transform="matrix(0.00855778 0 0 0.00887595 118.266 15.3974)"><rect x="0" y="0" width="1116.85" height="1112.66" fill="url(#paint5_diamond_4101_13617)" opacity="1" shape-rendering="crispEdges"/><rect x="0" y="0" width="1116.85" height="1112.66" transform="scale(1 -1)" fill="url(#paint5_diamond_4101_13617)" opacity="1" shape-rendering="crispEdges"/><rect x="0" y="0" width="1116.85" height="1112.66" transform="scale(-1 1)" fill="url(#paint5_diamond_4101_13617)" opacity="1" shape-rendering="crispEdges"/><rect x="0" y="0" width="1116.85" height="1112.66" transform="scale(-1)" fill="url(#paint5_diamond_4101_13617)" opacity="1" shape-rendering="crispEdges"/></g></g><path d="M109.708 15.3835C109.708 10.0625 112.978 6.52148 118.252 6.52148C123.525 6.52148 126.824 10.0625 126.824 15.3835C126.824 20.7044 123.516 24.2734 118.252 24.2734C112.988 24.2734 109.708 20.695 109.708 15.3835ZM121.975 15.3835C121.975 12.3456 120.718 10.0998 118.28 10.0998C115.842 10.0998 114.528 12.3456 114.528 15.3835C114.528 18.4213 115.813 20.6391 118.28 20.6391C120.747 20.6391 121.975 18.3934 121.975 15.3835Z" data-figma-gradient-fill="{&#34;type&#34;:&#34;GRADIENT_DIAMOND&#34;,&#34;stops&#34;:[{&#34;color&#34;:{&#34;r&#34;:0.30588236451148987,&#34;g&#34;:0.16941176354885101,&#34;b&#34;:0.094117648899555206,&#34;a&#34;:1.0},&#34;position&#34;:0.0},{&#34;color&#34;:{&#34;r&#34;:0.23137255012989044,&#34;g&#34;:0.12941177189350128,&#34;b&#34;:0.070588238537311554,&#34;a&#34;:1.0},&#34;position&#34;:1.0}],&#34;stopsVar&#34;:[{&#34;color&#34;:{&#34;r&#34;:0.30588236451148987,&#34;g&#34;:0.16941176354885101,&#34;b&#34;:0.094117648899555206,&#34;a&#34;:1.0},&#34;position&#34;:0.0},{&#34;color&#34;:{&#34;r&#34;:0.23137255012989044,&#34;g&#34;:0.12941177189350128,&#34;b&#34;:0.070588238537311554,&#34;a&#34;:1.0},&#34;position&#34;:1.0}],&#34;transform&#34;:{&#34;m00&#34;:17.115554809570312,&#34;m01&#34;:0.0,&#34;m02&#34;:109.70812988281250,&#34;m10&#34;:0.0,&#34;m11&#34;:17.751893997192383,&#34;m12&#34;:6.5214843750},&#34;opacity&#34;:1.0,&#34;blendMode&#34;:&#34;NORMAL&#34;,&#34;visible&#34;:true}"/>
<g clip-path="url(#paint6_diamond_4101_13617_clip_path)" data-figma-skip-parse="true"><g transform="matrix(0.00643133 0 0 0.0120023 132.707 11.9926)"><rect x="0" y="0" width="1155.49" height="1083.32" fill="url(#paint6_diamond_4101_13617)" opacity="1" shape-rendering="crispEdges"/><rect x="0" y="0" width="1155.49" height="1083.32" transform="scale(1 -1)" fill="url(#paint6_diamond_4101_13617)" opacity="1" shape-rendering="crispEdges"/><rect x="0" y="0" width="1155.49" height="1083.32" transform="scale(-1 1)" fill="url(#paint6_diamond_4101_13617)" opacity="1" shape-rendering="crispEdges"/><rect x="0" y="0" width="1155.49" height="1083.32" transform="scale(-1)" fill="url(#paint6_diamond_4101_13617)" opacity="1" shape-rendering="crispEdges"/></g></g><path d="M139.138 10.3152H134.677C134.432 10.3152 134.224 10.5109 134.224 10.7625V23.3426C134.224 23.6967 133.931 23.9949 133.562 23.9949H130.141C129.772 23.9949 129.461 23.6967 129.461 23.324V10.865C129.461 10.5575 129.215 10.3152 128.903 10.3152H126.767C126.493 10.3152 126.276 10.1009 126.276 9.83065V8.52605C126.276 7.56624 127.06 6.7928 128.033 6.7928H129.461V5.49751C129.461 1.89122 131.672 -0.00976562 135.178 -0.00976562H135.641C136.946 -0.00976562 138.004 1.03392 138.004 2.31988V3.13991C138.004 3.60584 137.787 3.80153 137.532 3.7829C137.087 3.74562 136.747 3.72698 136.558 3.72698C135.018 3.72698 134.214 4.33269 134.214 5.74912V6.7928H139.129V10.3059L139.138 10.3152Z" data-figma-gradient-fill="{&#34;type&#34;:&#34;GRADIENT_DIAMOND&#34;,&#34;stops&#34;:[{&#34;color&#34;:{&#34;r&#34;:0.30588236451148987,&#34;g&#34;:0.16941176354885101,&#34;b&#34;:0.094117648899555206,&#34;a&#34;:1.0},&#34;position&#34;:0.0},{&#34;color&#34;:{&#34;r&#34;:0.23137255012989044,&#34;g&#34;:0.12941177189350128,&#34;b&#34;:0.070588238537311554,&#34;a&#34;:1.0},&#34;position&#34;:1.0}],&#34;stopsVar&#34;:[{&#34;color&#34;:{&#34;r&#34;:0.30588236451148987,&#34;g&#34;:0.16941176354885101,&#34;b&#34;:0.094117648899555206,&#34;a&#34;:1.0},&#34;position&#34;:0.0},{&#34;color&#34;:{&#34;r&#34;:0.23137255012989044,&#34;g&#34;:0.12941177189350128,&#34;b&#34;:0.070588238537311554,&#34;a&#34;:1.0},&#34;position&#34;:1.0}],&#34;transform&#34;:{&#34;m00&#34;:12.862656593322754,&#34;m01&#34;:0.0,&#34;m02&#34;:126.27557373046875,&#34;m10&#34;:0.0,&#34;m11&#34;:24.004659652709961,&#34;m12&#34;:-0.0097656250},&#34;opacity&#34;:1.0,&#34;blendMode&#34;:&#34;NORMAL&#34;,&#34;visible&#34;:true}"/>
<g clip-path="url(#paint7_diamond_4101_13617_clip_path)" data-figma-skip-parse="true"><g transform="matrix(0.00550514 0 0 0.011993 143.519 11.993)"><rect x="0" y="0" width="1181.65" height="1083.38" fill="url(#paint7_diamond_4101_13617)" opacity="1" shape-rendering="crispEdges"/><rect x="0" y="0" width="1181.65" height="1083.38" transform="scale(1 -1)" fill="url(#paint7_diamond_4101_13617)" opacity="1" shape-rendering="crispEdges"/><rect x="0" y="0" width="1181.65" height="1083.38" transform="scale(-1 1)" fill="url(#paint7_diamond_4101_13617)" opacity="1" shape-rendering="crispEdges"/><rect x="0" y="0" width="1181.65" height="1083.38" transform="scale(-1)" fill="url(#paint7_diamond_4101_13617)" opacity="1" shape-rendering="crispEdges"/></g></g><path d="M148.532 10.3157H145.669C145.432 10.3157 145.234 10.502 145.234 10.7443V23.343C145.234 23.6971 144.941 23.986 144.582 23.986H141.142C140.783 23.986 140.49 23.6971 140.49 23.343V10.7443C140.49 10.5114 140.301 10.3157 140.055 10.3157H138.448C138.212 10.3157 138.014 10.1293 138.014 9.88701V7.23122C138.014 6.99825 138.203 6.80256 138.448 6.80256H140.49V5.50728C140.49 1.90099 142.701 0 146.207 0H146.236C147.776 0 149.024 1.23937 149.024 2.7583V3.27082C149.024 3.61561 148.806 3.8113 148.551 3.79266C148.107 3.75539 147.767 3.73675 147.578 3.73675C146.037 3.73675 145.234 4.34246 145.234 5.75888V6.80256H147.266C148.239 6.80256 149.024 7.576 149.024 8.53582V9.84042C149.024 10.1013 148.806 10.325 148.532 10.325V10.3157Z" data-figma-gradient-fill="{&#34;type&#34;:&#34;GRADIENT_DIAMOND&#34;,&#34;stops&#34;:[{&#34;color&#34;:{&#34;r&#34;:0.30588236451148987,&#34;g&#34;:0.16941176354885101,&#34;b&#34;:0.094117648899555206,&#34;a&#34;:1.0},&#34;position&#34;:0.0},{&#34;color&#34;:{&#34;r&#34;:0.23137255012989044,&#34;g&#34;:0.12941177189350128,&#34;b&#34;:0.070588238537311554,&#34;a&#34;:1.0},&#34;position&#34;:1.0}],&#34;stopsVar&#34;:[{&#34;color&#34;:{&#34;r&#34;:0.30588236451148987,&#34;g&#34;:0.16941176354885101,&#34;b&#34;:0.094117648899555206,&#34;a&#34;:1.0},&#34;position&#34;:0.0},{&#34;color&#34;:{&#34;r&#34;:0.23137255012989044,&#34;g&#34;:0.12941177189350128,&#34;b&#34;:0.070588238537311554,&#34;a&#34;:1.0},&#34;position&#34;:1.0}],&#34;transform&#34;:{&#34;m00&#34;:11.010276794433594,&#34;m01&#34;:0.0,&#34;m02&#34;:138.01354980468750,&#34;m10&#34;:0.0,&#34;m11&#34;:23.986021041870117,&#34;m12&#34;:0.0},&#34;opacity&#34;:1.0,&#34;blendMode&#34;:&#34;NORMAL&#34;,&#34;visible&#34;:true}"/>
<g clip-path="url(#paint8_diamond_4101_13617_clip_path)" data-figma-skip-parse="true"><g transform="matrix(0.00829788 0 0 0.00888526 156.414 15.4732)"><rect x="0" y="0" width="1120.51" height="1112.55" fill="url(#paint8_diamond_4101_13617)" opacity="1" shape-rendering="crispEdges"/><rect x="0" y="0" width="1120.51" height="1112.55" transform="scale(1 -1)" fill="url(#paint8_diamond_4101_13617)" opacity="1" shape-rendering="crispEdges"/><rect x="0" y="0" width="1120.51" height="1112.55" transform="scale(-1 1)" fill="url(#paint8_diamond_4101_13617)" opacity="1" shape-rendering="crispEdges"/><rect x="0" y="0" width="1120.51" height="1112.55" transform="scale(-1)" fill="url(#paint8_diamond_4101_13617)" opacity="1" shape-rendering="crispEdges"/></g></g><path d="M148.117 15.4778C148.117 10.1569 151.424 6.58789 156.528 6.58789C161.121 6.58789 164.712 9.43938 164.712 15.2914C164.712 16.0276 164.107 16.624 163.361 16.624H154.373C153.437 16.624 152.776 17.5372 153.097 18.4038C153.655 19.9414 154.997 20.836 156.821 20.836C158.135 20.836 159.146 20.3701 159.732 19.6339C159.996 19.3077 160.384 19.1027 160.8 19.1027H162.605C163.654 19.1027 164.325 20.2396 163.767 21.1156C162.491 23.119 160.025 24.3584 156.717 24.3584C151.387 24.3584 148.117 20.9385 148.117 15.4965V15.4778ZM158.513 13.67C159.524 13.67 160.223 12.5797 159.703 11.7224C159.099 10.716 157.993 10.101 156.622 10.101C155.252 10.101 154.212 10.6881 153.532 11.592C152.851 12.4959 153.56 13.6793 154.647 13.6793H158.503L158.513 13.67Z" data-figma-gradient-fill="{&#34;type&#34;:&#34;GRADIENT_DIAMOND&#34;,&#34;stops&#34;:[{&#34;color&#34;:{&#34;r&#34;:0.30588236451148987,&#34;g&#34;:0.16941176354885101,&#34;b&#34;:0.094117648899555206,&#34;a&#34;:1.0},&#34;position&#34;:0.0},{&#34;color&#34;:{&#34;r&#34;:0.23137255012989044,&#34;g&#34;:0.12941177189350128,&#34;b&#34;:0.070588238537311554,&#34;a&#34;:1.0},&#34;position&#34;:1.0}],&#34;stopsVar&#34;:[{&#34;color&#34;:{&#34;r&#34;:0.30588236451148987,&#34;g&#34;:0.16941176354885101,&#34;b&#34;:0.094117648899555206,&#34;a&#34;:1.0},&#34;position&#34;:0.0},{&#34;color&#34;:{&#34;r&#34;:0.23137255012989044,&#34;g&#34;:0.12941177189350128,&#34;b&#34;:0.070588238537311554,&#34;a&#34;:1.0},&#34;position&#34;:1.0}],&#34;transform&#34;:{&#34;m00&#34;:16.595760345458984,&#34;m01&#34;:0.0,&#34;m02&#34;:148.11657714843750,&#34;m10&#34;:0.0,&#34;m11&#34;:17.770528793334961,&#34;m12&#34;:6.5878906250},&#34;opacity&#34;:1.0,&#34;blendMode&#34;:&#34;NORMAL&#34;,&#34;visible&#34;:true}"/>
<g clip-path="url(#paint9_diamond_4101_13617_clip_path)" data-figma-skip-parse="true"><g transform="matrix(0.00829788 0 0 0.00888526 170.799 15.4732)"><rect x="0" y="0" width="1120.51" height="1112.55" fill="url(#paint9_diamond_4101_13617)" opacity="1" shape-rendering="crispEdges"/><rect x="0" y="0" width="1120.51" height="1112.55" transform="scale(1 -1)" fill="url(#paint9_diamond_4101_13617)" opacity="1" shape-rendering="crispEdges"/><rect x="0" y="0" width="1120.51" height="1112.55" transform="scale(-1 1)" fill="url(#paint9_diamond_4101_13617)" opacity="1" shape-rendering="crispEdges"/><rect x="0" y="0" width="1120.51" height="1112.55" transform="scale(-1)" fill="url(#paint9_diamond_4101_13617)" opacity="1" shape-rendering="crispEdges"/></g></g><path d="M162.501 15.4778C162.501 10.1569 165.809 6.58789 170.912 6.58789C175.505 6.58789 179.097 9.43938 179.097 15.2914C179.097 16.0276 178.492 16.624 177.745 16.624H168.757C167.822 16.624 167.16 17.5372 167.481 18.4038C168.039 19.9414 169.381 20.836 171.205 20.836C172.519 20.836 173.53 20.3701 174.116 19.6339C174.381 19.3077 174.768 19.1027 175.184 19.1027H176.989C178.038 19.1027 178.709 20.2396 178.151 21.1156C176.876 23.119 174.409 24.3584 171.101 24.3584C165.771 24.3584 162.501 20.9385 162.501 15.4965V15.4778ZM172.887 13.67C173.899 13.67 174.598 12.5797 174.078 11.7224C173.473 10.716 172.368 10.101 170.997 10.101C169.627 10.101 168.587 10.6881 167.907 11.592C167.226 12.4959 167.935 13.6793 169.022 13.6793H172.878L172.887 13.67Z" data-figma-gradient-fill="{&#34;type&#34;:&#34;GRADIENT_DIAMOND&#34;,&#34;stops&#34;:[{&#34;color&#34;:{&#34;r&#34;:0.30588236451148987,&#34;g&#34;:0.16941176354885101,&#34;b&#34;:0.094117648899555206,&#34;a&#34;:1.0},&#34;position&#34;:0.0},{&#34;color&#34;:{&#34;r&#34;:0.23137255012989044,&#34;g&#34;:0.12941177189350128,&#34;b&#34;:0.070588238537311554,&#34;a&#34;:1.0},&#34;position&#34;:1.0}],&#34;stopsVar&#34;:[{&#34;color&#34;:{&#34;r&#34;:0.30588236451148987,&#34;g&#34;:0.16941176354885101,&#34;b&#34;:0.094117648899555206,&#34;a&#34;:1.0},&#34;position&#34;:0.0},{&#34;color&#34;:{&#34;r&#34;:0.23137255012989044,&#34;g&#34;:0.12941177189350128,&#34;b&#34;:0.070588238537311554,&#34;a&#34;:1.0},&#34;position&#34;:1.0}],&#34;transform&#34;:{&#34;m00&#34;:16.595752716064453,&#34;m01&#34;:0.0,&#34;m02&#34;:162.50079345703125,&#34;m10&#34;:0.0,&#34;m11&#34;:17.770528793334961,&#34;m12&#34;:6.5878906250},&#34;opacity&#34;:1.0,&#34;blendMode&#34;:&#34;NORMAL&#34;,&#34;visible&#34;:true}"/>
<g clip-path="url(#paint10_diamond_4101_13617_clip_path)" data-figma-skip-parse="true"><g transform="matrix(0.00267975 0 0 0.00264182 183.741 21.343)"><rect x="0" y="0" width="1373.17" height="1378.53" fill="url(#paint10_diamond_4101_13617)" opacity="1" shape-rendering="crispEdges"/><rect x="0" y="0" width="1373.17" height="1378.53" transform="scale(1 -1)" fill="url(#paint10_diamond_4101_13617)" opacity="1" shape-rendering="crispEdges"/><rect x="0" y="0" width="1373.17" height="1378.53" transform="scale(-1 1)" fill="url(#paint10_diamond_4101_13617)" opacity="1" shape-rendering="crispEdges"/><rect x="0" y="0" width="1373.17" height="1378.53" transform="scale(-1)" fill="url(#paint10_diamond_4101_13617)" opacity="1" shape-rendering="crispEdges"/></g></g><path d="M181.062 21.329C181.034 19.8753 182.253 18.7012 183.756 18.7012C185.174 18.7012 186.421 19.8753 186.421 21.329C186.421 22.7827 185.174 23.9848 183.756 23.9848C182.244 23.9848 181.025 22.7827 181.062 21.329Z" data-figma-gradient-fill="{&#34;type&#34;:&#34;GRADIENT_DIAMOND&#34;,&#34;stops&#34;:[{&#34;color&#34;:{&#34;r&#34;:0.30588236451148987,&#34;g&#34;:0.16941176354885101,&#34;b&#34;:0.094117648899555206,&#34;a&#34;:1.0},&#34;position&#34;:0.0},{&#34;color&#34;:{&#34;r&#34;:0.23137255012989044,&#34;g&#34;:0.12941177189350128,&#34;b&#34;:0.070588238537311554,&#34;a&#34;:1.0},&#34;position&#34;:1.0}],&#34;stopsVar&#34;:[{&#34;color&#34;:{&#34;r&#34;:0.30588236451148987,&#34;g&#34;:0.16941176354885101,&#34;b&#34;:0.094117648899555206,&#34;a&#34;:1.0},&#34;position&#34;:0.0},{&#34;color&#34;:{&#34;r&#34;:0.23137255012989044,&#34;g&#34;:0.12941177189350128,&#34;b&#34;:0.070588238537311554,&#34;a&#34;:1.0},&#34;position&#34;:1.0}],&#34;transform&#34;:{&#34;m00&#34;:5.3595066070556641,&#34;m01&#34;:0.0,&#34;m02&#34;:181.06152343750,&#34;m10&#34;:0.0,&#34;m11&#34;:5.2836341857910156,&#34;m12&#34;:18.7011718750},&#34;opacity&#34;:1.0,&#34;blendMode&#34;:&#34;NORMAL&#34;,&#34;visible&#34;:true}"/>
<g clip-path="url(#paint11_diamond_4101_13617_clip_path)" data-figma-skip-parse="true"><g transform="matrix(0.0108051 0 0 0.0114619 201.303 12.5419)"><rect x="0" y="0" width="1092.55" height="1087.25" fill="url(#paint11_diamond_4101_13617)" opacity="1" shape-rendering="crispEdges"/><rect x="0" y="0" width="1092.55" height="1087.25" transform="scale(1 -1)" fill="url(#paint11_diamond_4101_13617)" opacity="1" shape-rendering="crispEdges"/><rect x="0" y="0" width="1092.55" height="1087.25" transform="scale(-1 1)" fill="url(#paint11_diamond_4101_13617)" opacity="1" shape-rendering="crispEdges"/><rect x="0" y="0" width="1092.55" height="1087.25" transform="scale(-1)" fill="url(#paint11_diamond_4101_13617)" opacity="1" shape-rendering="crispEdges"/></g></g><path d="M190.551 22.8949L198.027 1.62987C198.14 1.29441 198.461 1.08008 198.821 1.08008H203.82C204.179 1.08008 204.491 1.30372 204.614 1.63919L212.061 22.9042C212.25 23.4353 211.844 23.9945 211.267 23.9945H207.884C207.525 23.9945 207.204 23.7615 207.09 23.426L205.729 19.2793C205.616 18.9345 205.294 18.7108 204.935 18.7108H197.734C197.375 18.7108 197.053 18.9438 196.94 19.2793L195.551 23.4353C195.437 23.7708 195.116 24.0038 194.757 24.0038H191.336C190.759 24.0038 190.362 23.4447 190.542 22.9135L190.551 22.8949ZM203.168 15.002C203.735 15.002 204.141 14.4522 203.962 13.9211L201.401 6.23325H201.24L198.707 13.9211C198.528 14.4522 198.934 15.002 199.501 15.002H203.168Z" data-figma-gradient-fill="{&#34;type&#34;:&#34;GRADIENT_DIAMOND&#34;,&#34;stops&#34;:[{&#34;color&#34;:{&#34;r&#34;:0.30588236451148987,&#34;g&#34;:0.16941176354885101,&#34;b&#34;:0.094117648899555206,&#34;a&#34;:1.0},&#34;position&#34;:0.0},{&#34;color&#34;:{&#34;r&#34;:0.23137255012989044,&#34;g&#34;:0.12941177189350128,&#34;b&#34;:0.070588238537311554,&#34;a&#34;:1.0},&#34;position&#34;:1.0}],&#34;stopsVar&#34;:[{&#34;color&#34;:{&#34;r&#34;:0.30588236451148987,&#34;g&#34;:0.16941176354885101,&#34;b&#34;:0.094117648899555206,&#34;a&#34;:1.0},&#34;position&#34;:0.0},{&#34;color&#34;:{&#34;r&#34;:0.23137255012989044,&#34;g&#34;:0.12941177189350128,&#34;b&#34;:0.070588238537311554,&#34;a&#34;:1.0},&#34;position&#34;:1.0}],&#34;transform&#34;:{&#34;m00&#34;:21.6101074218750,&#34;m01&#34;:0.0,&#34;m02&#34;:190.4980468750,&#34;m10&#34;:0.0,&#34;m11&#34;:22.923702239990234,&#34;m12&#34;:1.0800781250},&#34;opacity&#34;:1.0,&#34;blendMode&#34;:&#34;NORMAL&#34;,&#34;visible&#34;:true}"/>
<g clip-path="url(#paint12_diamond_4101_13617_clip_path)" data-figma-skip-parse="true"><g transform="matrix(0.00204292 0 0 0.011278 217.571 12.3034)"><rect x="0" y="0" width="1489.49" height="1088.67" fill="url(#paint12_diamond_4101_13617)" opacity="1" shape-rendering="crispEdges"/><rect x="0" y="0" width="1489.49" height="1088.67" transform="scale(1 -1)" fill="url(#paint12_diamond_4101_13617)" opacity="1" shape-rendering="crispEdges"/><rect x="0" y="0" width="1489.49" height="1088.67" transform="scale(-1 1)" fill="url(#paint12_diamond_4101_13617)" opacity="1" shape-rendering="crispEdges"/><rect x="0" y="0" width="1489.49" height="1088.67" transform="scale(-1)" fill="url(#paint12_diamond_4101_13617)" opacity="1" shape-rendering="crispEdges"/></g></g><path d="M218.721 1.02539H216.422C215.928 1.02539 215.528 1.6278 215.528 2.37092V22.2358C215.528 22.9789 215.928 23.5813 216.422 23.5813H218.721C219.214 23.5813 219.614 22.9789 219.614 22.2358V2.37092C219.614 1.6278 219.214 1.02539 218.721 1.02539Z" data-figma-gradient-fill="{&#34;type&#34;:&#34;GRADIENT_DIAMOND&#34;,&#34;stops&#34;:[{&#34;color&#34;:{&#34;r&#34;:0.30588236451148987,&#34;g&#34;:0.16941176354885101,&#34;b&#34;:0.094117648899555206,&#34;a&#34;:1.0},&#34;position&#34;:0.0},{&#34;color&#34;:{&#34;r&#34;:0.23137255012989044,&#34;g&#34;:0.12941177189350128,&#34;b&#34;:0.070588238537311554,&#34;a&#34;:1.0},&#34;position&#34;:1.0}],&#34;stopsVar&#34;:[{&#34;color&#34;:{&#34;r&#34;:0.30588236451148987,&#34;g&#34;:0.16941176354885101,&#34;b&#34;:0.094117648899555206,&#34;a&#34;:1.0},&#34;position&#34;:0.0},{&#34;color&#34;:{&#34;r&#34;:0.23137255012989044,&#34;g&#34;:0.12941177189350128,&#34;b&#34;:0.070588238537311554,&#34;a&#34;:1.0},&#34;position&#34;:1.0}],&#34;transform&#34;:{&#34;m00&#34;:4.0858454704284668,&#34;m01&#34;:0.0,&#34;m02&#34;:215.52832031250,&#34;m10&#34;:0.0,&#34;m11&#34;:22.555944442749023,&#34;m12&#34;:1.0253906250},&#34;opacity&#34;:1.0,&#34;blendMode&#34;:&#34;NORMAL&#34;,&#34;visible&#34;:true}"/>
</g>
<defs>
<clipPath id="paint2_diamond_4101_13617_clip_path"><path d="M45.8674 1.07031C46.4439 1.07031 46.9732 1.4151 47.1906 1.94626L53.2769 16.6137H53.5321L59.6185 1.94626C59.8358 1.4151 60.3556 1.07031 60.9416 1.07031H64.5235C65.3079 1.07031 65.9506 1.70398 65.9506 2.47742V23.1553C65.9506 23.612 65.5725 23.9847 65.1094 23.9847H62.1135C61.6504 23.9847 61.2724 23.612 61.2724 23.1553V8.98179H61.0834L55.2333 23.3697C55.1009 23.6865 54.7985 23.8915 54.4488 23.8915H52.3791C52.0294 23.8915 51.727 23.6865 51.5947 23.3697L45.7446 8.92587H45.5555V23.1553C45.5555 23.612 45.1775 23.9847 44.7144 23.9847H41.6996C41.2365 23.9847 40.8585 23.612 40.8585 23.1553V2.47742C40.8585 1.70398 41.5011 1.07031 42.2855 1.07031H45.8674Z"/></clipPath><clipPath id="paint3_diamond_4101_13617_clip_path"><path d="M68.5874 31.9055V28.2619C69.2017 28.2899 69.9011 28.3271 70.5154 28.3271C71.4415 28.3271 72.2165 28.2339 72.793 26.743L73.086 26.0161L67.4438 10.1093C67.1414 9.25201 67.7841 8.35742 68.7008 8.35742H70.7894C71.3848 8.35742 71.9141 8.7488 72.0748 9.31724L75.4582 21.0214H75.6472L79.059 9.31724C79.2196 8.7488 79.7489 8.36674 80.3443 8.36674H82.4896C83.4064 8.36674 84.0585 9.26132 83.7466 10.1186L77.5657 27.4512C76.5734 30.2095 74.6737 32.008 70.9879 32.008C70.0617 32.008 69.1922 31.98 68.5779 31.9148L68.5874 31.9055Z"/></clipPath><clipPath id="paint4_diamond_4101_13617_clip_path"><path d="M99.1232 4.96635C95.494 4.96635 93.1219 7.72465 93.1219 12.533C93.1219 17.3414 95.5318 20.0997 99.0948 20.0997C101.363 20.0997 103.121 19.0467 103.886 17.2016C104.151 16.568 104.813 16.1766 105.512 16.1859H106.769C108.045 16.2046 108.905 17.4905 108.404 18.6367C107.024 21.8143 103.773 24.3117 99.0287 24.3117C92.8005 24.3117 88.2074 20.0065 88.2074 12.533C88.2074 5.05954 92.895 0.763672 99.0287 0.763672C103.508 0.763672 107.071 2.88831 108.498 6.65301C108.933 7.80852 108.092 9.05721 106.835 9.05721H105.559C104.841 9.05721 104.17 8.64719 103.924 7.98557C103.206 6.0939 101.42 4.97567 99.1326 4.97567L99.1232 4.96635Z"/></clipPath><clipPath id="paint5_diamond_4101_13617_clip_path"><path d="M109.708 15.3835C109.708 10.0625 112.978 6.52148 118.252 6.52148C123.525 6.52148 126.824 10.0625 126.824 15.3835C126.824 20.7044 123.516 24.2734 118.252 24.2734C112.988 24.2734 109.708 20.695 109.708 15.3835ZM121.975 15.3835C121.975 12.3456 120.718 10.0998 118.28 10.0998C115.842 10.0998 114.528 12.3456 114.528 15.3835C114.528 18.4213 115.813 20.6391 118.28 20.6391C120.747 20.6391 121.975 18.3934 121.975 15.3835Z"/></clipPath><clipPath id="paint6_diamond_4101_13617_clip_path"><path d="M139.138 10.3152H134.677C134.432 10.3152 134.224 10.5109 134.224 10.7625V23.3426C134.224 23.6967 133.931 23.9949 133.562 23.9949H130.141C129.772 23.9949 129.461 23.6967 129.461 23.324V10.865C129.461 10.5575 129.215 10.3152 128.903 10.3152H126.767C126.493 10.3152 126.276 10.1009 126.276 9.83065V8.52605C126.276 7.56624 127.06 6.7928 128.033 6.7928H129.461V5.49751C129.461 1.89122 131.672 -0.00976562 135.178 -0.00976562H135.641C136.946 -0.00976562 138.004 1.03392 138.004 2.31988V3.13991C138.004 3.60584 137.787 3.80153 137.532 3.7829C137.087 3.74562 136.747 3.72698 136.558 3.72698C135.018 3.72698 134.214 4.33269 134.214 5.74912V6.7928H139.129V10.3059L139.138 10.3152Z"/></clipPath><clipPath id="paint7_diamond_4101_13617_clip_path"><path d="M148.532 10.3157H145.669C145.432 10.3157 145.234 10.502 145.234 10.7443V23.343C145.234 23.6971 144.941 23.986 144.582 23.986H141.142C140.783 23.986 140.49 23.6971 140.49 23.343V10.7443C140.49 10.5114 140.301 10.3157 140.055 10.3157H138.448C138.212 10.3157 138.014 10.1293 138.014 9.88701V7.23122C138.014 6.99825 138.203 6.80256 138.448 6.80256H140.49V5.50728C140.49 1.90099 142.701 0 146.207 0H146.236C147.776 0 149.024 1.23937 149.024 2.7583V3.27082C149.024 3.61561 148.806 3.8113 148.551 3.79266C148.107 3.75539 147.767 3.73675 147.578 3.73675C146.037 3.73675 145.234 4.34246 145.234 5.75888V6.80256H147.266C148.239 6.80256 149.024 7.576 149.024 8.53582V9.84042C149.024 10.1013 148.806 10.325 148.532 10.325V10.3157Z"/></clipPath><clipPath id="paint8_diamond_4101_13617_clip_path"><path d="M148.117 15.4778C148.117 10.1569 151.424 6.58789 156.528 6.58789C161.121 6.58789 164.712 9.43938 164.712 15.2914C164.712 16.0276 164.107 16.624 163.361 16.624H154.373C153.437 16.624 152.776 17.5372 153.097 18.4038C153.655 19.9414 154.997 20.836 156.821 20.836C158.135 20.836 159.146 20.3701 159.732 19.6339C159.996 19.3077 160.384 19.1027 160.8 19.1027H162.605C163.654 19.1027 164.325 20.2396 163.767 21.1156C162.491 23.119 160.025 24.3584 156.717 24.3584C151.387 24.3584 148.117 20.9385 148.117 15.4965V15.4778ZM158.513 13.67C159.524 13.67 160.223 12.5797 159.703 11.7224C159.099 10.716 157.993 10.101 156.622 10.101C155.252 10.101 154.212 10.6881 153.532 11.592C152.851 12.4959 153.56 13.6793 154.647 13.6793H158.503L158.513 13.67Z"/></clipPath><clipPath id="paint9_diamond_4101_13617_clip_path"><path d="M162.501 15.4778C162.501 10.1569 165.809 6.58789 170.912 6.58789C175.505 6.58789 179.097 9.43938 179.097 15.2914C179.097 16.0276 178.492 16.624 177.745 16.624H168.757C167.822 16.624 167.16 17.5372 167.481 18.4038C168.039 19.9414 169.381 20.836 171.205 20.836C172.519 20.836 173.53 20.3701 174.116 19.6339C174.381 19.3077 174.768 19.1027 175.184 19.1027H176.989C178.038 19.1027 178.709 20.2396 178.151 21.1156C176.876 23.119 174.409 24.3584 171.101 24.3584C165.771 24.3584 162.501 20.9385 162.501 15.4965V15.4778ZM172.887 13.67C173.899 13.67 174.598 12.5797 174.078 11.7224C173.473 10.716 172.368 10.101 170.997 10.101C169.627 10.101 168.587 10.6881 167.907 11.592C167.226 12.4959 167.935 13.6793 169.022 13.6793H172.878L172.887 13.67Z"/></clipPath><clipPath id="paint10_diamond_4101_13617_clip_path"><path d="M181.062 21.329C181.034 19.8753 182.253 18.7012 183.756 18.7012C185.174 18.7012 186.421 19.8753 186.421 21.329C186.421 22.7827 185.174 23.9848 183.756 23.9848C182.244 23.9848 181.025 22.7827 181.062 21.329Z"/></clipPath><clipPath id="paint11_diamond_4101_13617_clip_path"><path d="M190.551 22.8949L198.027 1.62987C198.14 1.29441 198.461 1.08008 198.821 1.08008H203.82C204.179 1.08008 204.491 1.30372 204.614 1.63919L212.061 22.9042C212.25 23.4353 211.844 23.9945 211.267 23.9945H207.884C207.525 23.9945 207.204 23.7615 207.09 23.426L205.729 19.2793C205.616 18.9345 205.294 18.7108 204.935 18.7108H197.734C197.375 18.7108 197.053 18.9438 196.94 19.2793L195.551 23.4353C195.437 23.7708 195.116 24.0038 194.757 24.0038H191.336C190.759 24.0038 190.362 23.4447 190.542 22.9135L190.551 22.8949ZM203.168 15.002C203.735 15.002 204.141 14.4522 203.962 13.9211L201.401 6.23325H201.24L198.707 13.9211C198.528 14.4522 198.934 15.002 199.501 15.002H203.168Z"/></clipPath><clipPath id="paint12_diamond_4101_13617_clip_path"><path d="M218.721 1.02539H216.422C215.928 1.02539 215.528 1.6278 215.528 2.37092V22.2358C215.528 22.9789 215.928 23.5813 216.422 23.5813H218.721C219.214 23.5813 219.614 22.9789 219.614 22.2358V2.37092C219.614 1.6278 219.214 1.02539 218.721 1.02539Z"/></clipPath><linearGradient id="paint0_linear_4101_13617" x1="12.5856" y1="-3.73307" x2="30.0501" y2="22.0138" gradientUnits="userSpaceOnUse">
<stop stop-color="#B96738"/>
<stop offset="0.169772" stop-color="#472816"/>
<stop offset="0.641263" stop-color="#412414"/>
<stop offset="1" stop-color="#3B2112"/>
</linearGradient>
<linearGradient id="paint1_linear_4101_13617" x1="1.55971" y1="-7.66356" x2="19.097" y2="18.2464" gradientUnits="userSpaceOnUse">
<stop stop-color="#B96738"/>
<stop offset="0.169772" stop-color="#472816"/>
<stop offset="0.641263" stop-color="#412414"/>
<stop offset="1" stop-color="#3B2112"/>
</linearGradient>
<linearGradient id="paint2_diamond_4101_13617" x1="0" y1="0" x2="500" y2="500" gradientUnits="userSpaceOnUse">
<stop stop-color="#4E2B18"/>
<stop offset="1" stop-color="#3B2112"/>
</linearGradient>
<linearGradient id="paint3_diamond_4101_13617" x1="0" y1="0" x2="500" y2="500" gradientUnits="userSpaceOnUse">
<stop stop-color="#4E2B18"/>
<stop offset="1" stop-color="#3B2112"/>
</linearGradient>
<linearGradient id="paint4_diamond_4101_13617" x1="0" y1="0" x2="500" y2="500" gradientUnits="userSpaceOnUse">
<stop stop-color="#4E2B18"/>
<stop offset="1" stop-color="#3B2112"/>
</linearGradient>
<linearGradient id="paint5_diamond_4101_13617" x1="0" y1="0" x2="500" y2="500" gradientUnits="userSpaceOnUse">
<stop stop-color="#4E2B18"/>
<stop offset="1" stop-color="#3B2112"/>
</linearGradient>
<linearGradient id="paint6_diamond_4101_13617" x1="0" y1="0" x2="500" y2="500" gradientUnits="userSpaceOnUse">
<stop stop-color="#4E2B18"/>
<stop offset="1" stop-color="#3B2112"/>
</linearGradient>
<linearGradient id="paint7_diamond_4101_13617" x1="0" y1="0" x2="500" y2="500" gradientUnits="userSpaceOnUse">
<stop stop-color="#4E2B18"/>
<stop offset="1" stop-color="#3B2112"/>
</linearGradient>
<linearGradient id="paint8_diamond_4101_13617" x1="0" y1="0" x2="500" y2="500" gradientUnits="userSpaceOnUse">
<stop stop-color="#4E2B18"/>
<stop offset="1" stop-color="#3B2112"/>
</linearGradient>
<linearGradient id="paint9_diamond_4101_13617" x1="0" y1="0" x2="500" y2="500" gradientUnits="userSpaceOnUse">
<stop stop-color="#4E2B18"/>
<stop offset="1" stop-color="#3B2112"/>
</linearGradient>
<linearGradient id="paint10_diamond_4101_13617" x1="0" y1="0" x2="500" y2="500" gradientUnits="userSpaceOnUse">
<stop stop-color="#4E2B18"/>
<stop offset="1" stop-color="#3B2112"/>
</linearGradient>
<linearGradient id="paint11_diamond_4101_13617" x1="0" y1="0" x2="500" y2="500" gradientUnits="userSpaceOnUse">
<stop stop-color="#4E2B18"/>
<stop offset="1" stop-color="#3B2112"/>
</linearGradient>
<linearGradient id="paint12_diamond_4101_13617" x1="0" y1="0" x2="500" y2="500" gradientUnits="userSpaceOnUse">
<stop stop-color="#4E2B18"/>
<stop offset="1" stop-color="#3B2112"/>
</linearGradient>
<clipPath id="clip0_4101_13617">
<rect width="179.142" height="32" fill="white" transform="translate(40.8585)"/>
</clipPath>
</defs>
</svg>
