<svg width="30" height="30" viewBox="0 0 30 30" fill="none" xmlns="http://www.w3.org/2000/svg">
<path d="M11.7623 6.55571C11.5517 6.08311 11.3696 5.35475 12.32 4.91552C13.1509 4.52632 14.3232 4.39844 15.5525 4.39844C17.1118 4.41512 18.7053 4.78208 20.2418 5.47151C21.7784 6.16095 23.2296 7.16175 24.5101 8.41275C25.7905 9.66374 26.8775 11.1483 27.7084 12.7773C28.5393 14.4064 29.097 16.1467 29.3474 17.8981C29.5978 19.6495 29.5409 21.3842 29.1767 22.9966C28.8124 24.609 28.1124 25.999 27.2247 27.3C26.7352 27.9505 26.1718 28.5343 25.5515 29.0292C24.641 29.7575 23.5085 29.6241 22.928 28.4621L17.4703 17.7535L11.7623 6.55571Z" fill="#F7FEFF"/>
<path d="M18.3576 23.7859C18.6308 24.3252 18.682 24.7478 17.8113 25.1703C16.804 25.654 15.6203 25.7152 14.4479 25.7041C12.8886 25.6874 11.2951 25.3204 9.75856 24.631C8.222 23.9416 6.77081 22.9408 5.49034 21.6898C4.20988 20.4388 3.1229 18.9543 2.29202 17.3252C1.46114 15.6961 0.903426 13.9558 0.653024 12.2044C0.402621 10.453 0.459531 8.71832 0.823753 7.10592C1.18797 5.49353 1.84813 4.03125 2.77575 2.80249C3.31639 2.08526 3.93671 1.45698 4.63101 0.928779C5.4562 0.300501 6.41228 0.278261 6.9643 1.43474L12.5244 12.349L18.3519 23.7914L18.3576 23.7859Z" fill="#F7FEFF"/>
</svg>
