<svg width="20" height="20" viewBox="0 0 20 20" fill="none" xmlns="http://www.w3.org/2000/svg">
<g clip-path="url(#clip0_1523_15154)">
<path d="M12.832 0.0506954C12.7265 0.0819454 12.539 0.152258 12.4219 0.214758C12.3047 0.273352 10.2187 1.48038 7.78514 2.89445L3.36717 5.46866H2.45311C1.45311 5.46866 1.28905 5.4921 0.917952 5.70304C0.492171 5.94523 0.128889 6.46085 0.0390455 6.94913C-0.0117357 7.23038 -0.015642 18.1757 0.0390455 18.4921C0.156233 19.2226 0.777327 19.8437 1.5078 19.9609C1.65233 19.9843 4.72655 19.9999 9.5703 19.9999C18.1719 19.9999 17.7148 20.0116 18.1484 19.7616C18.543 19.539 18.832 19.1835 19.0078 18.7265C19.0703 18.5546 19.0781 18.3632 19.0937 16.9491L19.1094 15.3632L19.2422 15.2968C19.4609 15.1952 19.7539 14.8905 19.8711 14.6523L19.9805 14.4335V12.7343V11.0351L19.875 10.8124C19.7539 10.5507 19.4961 10.2773 19.2695 10.1718L19.1094 10.0976L19.0937 8.51554C19.0742 6.83585 19.0703 6.8046 18.8711 6.41007C18.7578 6.19132 18.3828 5.82413 18.1406 5.69523C18.0351 5.63663 17.8242 5.55851 17.6758 5.51945L17.4062 5.44913L16.0859 3.14445C14.7617 0.824133 14.5781 0.546789 14.2422 0.31632C13.8633 0.0546017 13.2539 -0.0586796 12.832 0.0506954ZM13.6133 0.999914C13.7695 1.07413 14.0351 1.33195 13.9961 1.37101C13.9765 1.38663 12.3906 2.31241 10.4648 3.43351L6.96873 5.46866H6.09373C5.56248 5.46866 5.23436 5.45304 5.2578 5.43351C5.33983 5.35148 12.8359 1.01163 12.9844 0.956945C13.168 0.890539 13.418 0.906164 13.6133 0.999914ZM14.6992 2.5507L14.918 2.9296L14.832 2.98429C14.7851 3.01554 13.8047 3.58585 12.6562 4.25382L10.5703 5.46866H9.69139C9.21092 5.46866 8.82811 5.45695 8.84373 5.44132C8.87889 5.40616 14.4687 2.14835 14.4765 2.16007C14.4805 2.16398 14.5781 2.33976 14.6992 2.5507ZM15.8555 4.57413C16.1172 5.02726 16.3281 5.41398 16.3281 5.43351C16.3281 5.45304 15.4844 5.46866 14.3672 5.46866C13.289 5.46866 12.418 5.45695 12.4336 5.44523C12.4726 5.40226 15.3242 3.74991 15.3555 3.74991C15.3711 3.74991 15.5976 4.12101 15.8555 4.57413ZM17.543 6.41398C17.7461 6.47257 18 6.69913 18.0898 6.89054C18.1562 7.03898 18.164 7.1757 18.164 8.52335V9.99991H16.7109C15.8867 9.99991 15.1445 10.0194 15.0039 10.0429C14.0234 10.1991 13.1719 10.9413 12.8633 11.9023C12.4023 13.3515 13.2265 14.8944 14.707 15.3476C15.0117 15.4413 15.0586 15.4413 16.5937 15.4609L18.164 15.4765V16.9491C18.164 18.4179 18.164 18.4257 18.0742 18.5976C17.9531 18.8241 17.7109 19.0077 17.4531 19.0585C17.3047 19.0898 14.957 19.1015 9.41405 19.0937C1.85936 19.0819 1.57811 19.078 1.4453 19.0077C1.25389 18.9062 1.10155 18.7577 1.00389 18.5741L0.917952 18.4179V12.7343C0.917952 7.23038 0.921858 7.04679 0.992171 6.90226C1.08983 6.70304 1.26951 6.52726 1.46483 6.44132C1.61326 6.37101 1.95311 6.3671 9.5078 6.3671C15.3828 6.3671 17.4336 6.37882 17.543 6.41398ZM18.7851 10.9491C18.8594 10.9765 18.957 11.0468 19 11.1054C19.0781 11.2148 19.082 11.2538 19.082 12.7109C19.082 13.9491 19.0703 14.2265 19.0234 14.3124C18.9101 14.5312 18.9101 14.5312 16.957 14.5312C14.9648 14.5312 14.9101 14.5234 14.4961 14.2616C13.5078 13.6249 13.3594 12.2694 14.1914 11.4374C14.4219 11.2069 14.8594 10.9843 15.164 10.9374C15.5195 10.8866 18.6328 10.8944 18.7851 10.9491Z" fill="#4E2A18"/>
<path d="M15.0586 11.9177C14.8437 12.031 14.7422 12.1326 14.6445 12.3318C14.5351 12.5583 14.5351 12.9021 14.6406 13.1091C14.8047 13.4294 15.0429 13.5896 15.3945 13.6208C15.5898 13.6404 15.6562 13.6286 15.8398 13.5388C16.4179 13.2536 16.5351 12.5036 16.0664 12.0622C15.8203 11.8279 15.3554 11.7615 15.0586 11.9177Z" fill="#4E2A18"/>
</g>
<defs>
<clipPath id="clip0_1523_15154">
<rect width="20" height="20" fill="white"/>
</clipPath>
</defs>
</svg>
